<svg viewBox="0 0 62.408266667 65.8718" width="62.408266667pt" height="65.8718pt" xmlns="http://www.w3.org/2000/svg" xmlns:xlink="http://www.w3.org/1999/xlink" xmlns:h5="http://www.w3.org/1999/xhtml"><path fill="#ffffff" fill-rule="nonzero" d="M 0 0v 65.8718h 62.408266667v -65.8718Z "/><g transform="matrix(1 0 0 -1 8 15.513)"><use xlink:href="#gFFB5A8777EC2436BACBC1E5935C3EE9D" x="0" y="0" fill="#000000" fill-rule="nonzero"/><use xlink:href="#gC0D2A859579FFB562717100DE739703C" x="7.491" y="0" fill="#000000" fill-rule="nonzero"/><use xlink:href="#g7F5967141EBC89EE5F97D32C1B3CF866" x="12.683" y="0" fill="#000000" fill-rule="nonzero"/><use xlink:href="#g3E788B64C66C7CF92E8EF7B9397C8477" x="18.183" y="0" fill="#000000" fill-rule="nonzero"/><use xlink:href="#g992DAE7EC445D79649F36CBA22FE73D8" x="21.241" y="0" fill="#000000" fill-rule="nonzero"/><use xlink:href="#g7F5967141EBC89EE5F97D32C1B3CF866" x="27.357" y="0" fill="#000000" fill-rule="nonzero"/><use xlink:href="#g55A7CE01FEF58ABF26DCDA5BD3DA34B" x="32.857" y="0" fill="#000000" fill-rule="nonzero"/><use xlink:href="#g4D2A141AA7BF381107380276919D80EC" x="37.136" y="0" fill="#000000" fill-rule="nonzero"/></g><g transform="matrix(1 0 0 -1 8 46.0468)"><use xlink:href="#g9C6CE801A3C64ACA2167B0FBC3108D01" x="0" y="0" fill="#000000" fill-rule="nonzero"/></g><g transform="matrix(1 0 0 -1 18.989 33.8258)"><use xlink:href="#gBFCC2410A697C41E2DD3187C83DA8F3" x="0" y="0" fill="#000000" fill-rule="nonzero"/></g><g transform="matrix(1 0 0 -1 14.039 57.7178)"><use xlink:href="#gCFFEDE9C82D78D7703A652B0C82EC869" x="0" y="0" fill="#000000" fill-rule="nonzero"/></g><g transform="matrix(1 0 0 -1 25.819633333 46.0468)"><use xlink:href="#g7FDD4349A49914F62F30F23AE9794251" x="0" y="0" fill="#000000" fill-rule="nonzero"/></g><g transform="matrix(1 0 0 -1 32.111633333 42.0538)"><use xlink:href="#g25B224D96CA3F5CCC7E774117FEA026D" x="0" y="0" fill="#000000" fill-rule="nonzero"/></g><g transform="matrix(1 0 0 -1 38.942266667 46.0468)"><use xlink:href="#g1680D556E590D2896797EB422A195824" x="0" y="0" fill="#000000" fill-rule="nonzero"/></g><g transform="matrix(1 0 0 -1 45.058266667 46.0468)"><use xlink:href="#g7FDD4349A49914F62F30F23AE9794251" x="0" y="0" fill="#000000" fill-rule="nonzero"/></g><g transform="matrix(1 0 0 -1 51.350266667 46.0468)"><use xlink:href="#g8AF8F2BC2B33BC6B311ED96E17728B80" x="0" y="0" fill="#000000" fill-rule="nonzero"/></g><defs><symbol id="gFFB5A8777EC2436BACBC1E5935C3EE9D" overflow="visible"><path d="M 0 0m 4.653 2.431h 0.286v 2.915h -0.286c 0 -1.276 -0.33 -1.287 -1.65 -1.287h -0.528v 2.673c 0 0.396 0.132 0.407 0.528 0.407h 1.463c 1.551 0 1.958 -0.572 2.123 -2.134h 0.275l -0.308 2.475h -6.193v -0.341c 0.957 0 1.133 -0.011 1.133 -0.495v -5.808c 0 -0.407 -0.011 -0.495 -1.133 -0.495v -0.341h 6.358l 0.462 2.838h -0.286c -0.297 -1.98 -0.803 -2.497 -2.409 -2.497h -1.397c -0.583 0 -0.616 0.055 -0.616 0.418v 2.959h 0.528c 1.309 0 1.65 -0.022 1.65 -1.287Z "/></symbol><symbol id="gC0D2A859579FFB562717100DE739703C" overflow="visible"><path d="M 0 0m 1.881 4.004c -0.109527344 0.271927734 0.099 0.396 0.594 0.396v 0.341c -0.286 0 -0.968 -0.033 -1.265 -0.033c -0.198 0 -0.726 0.011 -1.001 0.033v -0.341h 0.066c 0.495 0 0.662901901 -0.044864746 0.77 -0.308l 1.65 -4.059c 0.031541748 -0.077592834 0.066 -0.154 0.198 -0.154c 0.099 0 0.170367065 0.030837128 0.22 0.154l 1.485 3.685c 0.106892822 0.265252136 0.341 0.682 0.99 0.682v 0.341c -0.209 -0.022 -0.495 -0.033 -0.825 -0.033c -0.165 0 -0.858 0.033 -0.957 0.033v -0.341c 0.429 0 0.615779114 -0.351912048 0.484 -0.682l -1.144 -2.86Z "/></symbol><symbol id="g7F5967141EBC89EE5F97D32C1B3CF866" overflow="visible"><path d="M 0 0m 4.356 3.102c 0 0.451 -0.044 0.869 -0.363 1.188c -0.407 0.407 -0.847 0.638 -1.639 0.638c -0.638 0 -1.562 -0.429 -1.562 -1.232c 0 -0.341 0.198 -0.528 0.506 -0.528c 0.308 0 0.506 0.198 0.506 0.517c 0 0.264 -0.187 0.495 -0.561 0.495c 0.264 0.33 0.759 0.506 1.155 0.506c 0.594 0 1.199 -0.473 1.199 -1.364v -0.451c -2.442 -0.066 -3.124 -1.078 -3.124 -1.815c 0 -0.924 1.056 -1.177 1.738 -1.177c 0.616 0 1.221 0.319 1.463 0.957c 0.011 -0.209 0.187 -0.902 0.869 -0.902c 0.33 0 0.891 0.242 0.891 1.034v 0.627h -0.275v -0.627c 0 -0.572 -0.253 -0.693 -0.385 -0.693c -0.22 0 -0.418 0.143 -0.418 0.759Z m -0.759 -1.562c 0 -0.968 -0.715 -1.419 -1.298 -1.419c -0.605 0 -0.979 0.463192383 -0.979 0.946c 0 0.528 0.396 1.496 2.277 1.573Z "/></symbol><symbol id="g3E788B64C66C7CF92E8EF7B9397C8477" overflow="visible"><path d="M 0 0m 1.947 0.847c 0 -0.484 0.077 -0.506 0.858 -0.506v -0.341c -0.275 0 -0.792 0.033 -1.232 0.033c -0.44 0 -0.935 -0.033 -1.21 -0.033v 0.341c 0.737 0 0.858 0.033 0.858 0.44v 5.852c 0 0.517 -0.242 0.539 -0.858 0.539v 0.341l 1.584 0.121Z "/></symbol><symbol id="g992DAE7EC445D79649F36CBA22FE73D8" overflow="visible"><path d="M 0 0m 5.885 0l -1.584 -0.121v 0.99c -0.231 -0.528 -0.671 -0.99 -1.419 -0.99c -1.463 0 -1.672 0.789217773 -1.672 1.551v 2.211c 0 0.649 -0.066 0.759 -0.715 0.759h -0.143v 0.341l 1.617 0.121v -3.696c 0 -0.55 0.099 -1.023 0.946 -1.023c 0.741876953 0 1.353 0.635754883 1.353 1.705v 2.046c 0 0.418 -0.209 0.506 -0.715 0.506h -0.143v 0.341l 1.617 0.121v -3.938c 0 -0.451 0.088 -0.583 0.748 -0.583h 0.11Z "/></symbol><symbol id="g55A7CE01FEF58ABF26DCDA5BD3DA34B" overflow="visible"><path d="M 0 0m 3.377 1.342v 0.649h 0.275v -0.649c 0 -0.814 -0.343803711 -1.463 -1.234964508 -1.463c -0.998035492 0 -1.273035492 0.814 -1.273035492 1.529v 2.992h -0.935v 0.242c 0.968 0.033 1.408 1.045 1.419 2.123h 0.275v -2.013h 1.573v -0.352h -1.573v -3.113c 0 -0.572 0.198 -1.133 0.713097458 -1.133c 0.544554886 0 0.760902542 0.627 0.760902542 1.188Z "/></symbol><symbol id="g4D2A141AA7BF381107380276919D80EC" overflow="visible"><path d="M 0 0m 4.268 1.265c -0.352 -1.012 -1.21 -1.111 -1.474 -1.111c -0.385 0 -0.649 0.143 -0.891 0.341c -0.462 0.385 -0.682 0.99 -0.682 1.881v 0.165h 3.146c 0.176 0 0.198 0.033 0.198 0.22c 0 1.265 -0.715 2.167 -1.969 2.167c -1.342 0 -2.288 -1.177 -2.288 -2.508c 0 -1.518 1.177 -2.541 2.442 -2.541c 1.298 0 1.815 1.199 1.815 1.43c 0 0.066 -0.033 0.132 -0.132 0.132c -0.077 0 -0.121 -0.044 -0.165 -0.176Z m -1.683 3.421c 1.111 0 1.254 -1.43 1.254 -1.87v -0.033h -2.607v 0.077c 0.088 1.452 0.913 1.826 1.353 1.826Z "/></symbol><symbol id="g9C6CE801A3C64ACA2167B0FBC3108D01" overflow="visible"><path d="M 0 0m 9.141 14.971c -0.517 0 -0.979 -0.473 -1.408 -1.419c -0.209 -0.451 -0.429 -1.133 -0.671 -2.046c -1.067 -3.938 -1.87 -7.777 -2.717 -12.793c -0.385 -2.321 -0.704 -4.004 -0.957 -5.027c -0.451 -1.881 -0.968 -2.827 -1.54 -2.827c -0.209 0 -0.396 0.055 -0.561 0.176c 0.319 0.055 0.473 0.242 0.473 0.572c 0 0.319 -0.242 0.572 -0.561 0.572c -0.385 0 -0.583 -0.198 -0.583 -0.583c 0 -0.638 0.627 -1.067 1.254 -1.067c 0.803 0 1.463 0.638 1.98 1.903c 0.275 0.671 0.649 1.969 1.111 3.872c 0.803 3.267 1.518 6.765 2.145 10.483c 0.44 2.607 0.836 4.587 1.177 5.94c 0.319 1.276 0.616 1.914 0.88 1.914c 0.22 0 0.407 -0.055 0.55 -0.176c -0.319 -0.055 -0.484 -0.242 -0.484 -0.572c 0 -0.319 0.242 -0.572 0.561 -0.572c 0.385 0 0.583 0.198 0.583 0.583c 0 0.605 -0.594 1.067 -1.232 1.067Z "/></symbol><symbol id="gBFCC2410A697C41E2DD3187C83DA8F3" overflow="visible"><path d="M 0 0m 2.3331 5.1128c -0.3311 -0.3234 -0.8239 -0.4851 -1.4938 -0.4851v -0.3388c 0.4543 0 0.8162 0.0693 1.0934 0.2002v -3.8346c 0 -0.1001 -0.0077 -0.1617 -0.0308 -0.1925c -0.0385 -0.0847 -0.2695 -0.1309 -0.693 -0.1309h -0.3157v -0.3311l 1.3706 0.0308l 1.3783 -0.0308v 0.3311h -0.3157c -0.4235 0 -0.6545 0.0462 -0.7007 0.1309c -0.0154 0.0308 -0.0231 0.0924 -0.0231 0.1925v 4.2119c 0 0.2079 -0.0308 0.2464 -0.2695 0.2464Z "/></symbol><symbol id="gCFFEDE9C82D78D7703A652B0C82EC869" overflow="visible"><path d="M 0 0m 3.9732 2.4563c 0 0.8701 -0.154 1.5323 -0.4543 1.9866c -0.2464 0.385 -0.7392 0.6699 -1.3321 0.6699c -0.2464 0 -0.4697 -0.0385 -0.6622 -0.1232c -0.847 -0.3542 -1.1242 -1.3398 -1.1242 -2.5333c 0 -0.2618 0.0154 -0.5082 0.0385 -0.7469c 0.1309 -1.0087 0.6006 -1.8634 1.7479 -1.8634c 0.2464 0 0.4697 0.0385 0.6622 0.1232c 0.847 0.3465 1.1242 1.309 1.1242 2.4871Z m -0.8778 1.7094c 0.0847 -0.2849 0.1309 -0.8162 0.1309 -1.6093c 0 -0.7546 -0.0308 -1.2859 -0.1001 -1.6016c -0.0924 -0.4543 -0.4158 -0.8316 -0.9394 -0.8316c -0.1925 0 -0.385 0.0616 -0.5621 0.1925c -0.2387 0.1771 -0.385 0.5236 -0.4466 1.0549c -0.0231 0.1771 -0.0308 0.5698 -0.0308 1.1858c 0 0.7469 0.0385 1.2628 0.1155 1.54c 0.1309 0.4928 0.4389 0.7392 0.924 0.7392c 0.462 0 0.8008 -0.3003 0.9086 -0.6699Z "/></symbol><symbol id="g7FDD4349A49914F62F30F23AE9794251" overflow="visible"><path d="M 0 0m 5.797 4.103c 0 0.506 -0.495 0.759 -1.045 0.759c -0.473 0 -0.847 -0.253 -1.133 -0.759c -0.231 0.506 -0.616 0.759 -1.177 0.759c -0.539 0 -0.979 -0.253 -1.331 -0.748c -0.297 -0.429 -0.451 -0.748 -0.451 -0.957c 0 -0.099 0.055 -0.154 0.165 -0.154c 0.099 0 0.165 0.055 0.187 0.154c 0.209 0.638 0.671 1.386 1.408 1.386c 0.363 0 0.539 -0.231 0.539 -0.682c 0 -0.231 -0.198 -1.089 -0.583 -2.563c -0.187 -0.737 -0.517 -1.1 -0.99 -1.1c -0.154 0 -0.297 0.033 -0.418 0.088c 0.286 0.11 0.429 0.308 0.429 0.594c 0 0.286 -0.143 0.429 -0.44 0.429c -0.363 0 -0.638 -0.308 -0.638 -0.671c 0 -0.506 0.517 -0.759 1.056 -0.759c 0.462 0 0.836 0.253 1.133 0.759c 0.209 -0.506 0.605 -0.759 1.177 -0.759c 0.528 0 0.968 0.253 1.32 0.748c 0.297 0.429 0.451 0.748 0.451 0.957c 0 0.099 -0.055 0.154 -0.165 0.154c -0.099 0 -0.154 -0.055 -0.187 -0.154c -0.187 -0.627 -0.682 -1.386 -1.397 -1.386c -0.363 0 -0.55 0.22 -0.55 0.671c 0 0.143 0.055 0.451 0.176 0.946l 0.374 1.485c 0.209 0.825 0.55 1.243 1.034 1.243c 0.154 0 0.297 -0.033 0.418 -0.088c -0.297 -0.099 -0.44 -0.297 -0.44 -0.594c 0 -0.286 0.154 -0.429 0.451 -0.429c 0.352 0 0.627 0.319 0.627 0.671Z "/></symbol><symbol id="g25B224D96CA3F5CCC7E774117FEA026D" overflow="visible"><path d="M 0 0m 0.9163 3.2648c 0.2464 0 0.4312 0.1848 0.4312 0.4312c 0 0.2772 -0.1463 0.4235 -0.4312 0.4312c 0.1694 0.3619 0.5544 0.6545 1.0549 0.6545c 0.6776 0 1.1242 -0.5082 1.1242 -1.1858c 0 -0.3696 -0.1309 -0.7238 -0.4004 -1.0703c -0.1309 -0.1771 -0.231 -0.3003 -0.3003 -0.3696l -1.8249 -1.8095c -0.1001 -0.0924 -0.0847 -0.1155 -0.0847 -0.3465h 3.1724l 0.2387 1.4476h -0.3234c -0.0539 -0.4081 -0.1155 -0.6468 -0.1848 -0.7007c -0.0385 -0.0231 -0.2772 -0.0385 -0.7315 -0.0385h -1.309c 0.5159 0.4543 0.9933 0.8624 1.4476 1.2243c 0.3465 0.2695 0.5929 0.5082 0.7469 0.7161c 0.231 0.3003 0.3465 0.616 0.3465 0.9471c 0 0.4774 -0.1848 0.8547 -0.5621 1.1319c -0.3311 0.2541 -0.7469 0.385 -1.2397 0.385c -0.4235 0 -0.7854 -0.1232 -1.1011 -0.3696c -0.3311 -0.2695 -0.5005 -0.6083 -0.5005 -1.0241c 0 -0.2618 0.1925 -0.4543 0.4312 -0.4543Z "/></symbol><symbol id="g1680D556E590D2896797EB422A195824" overflow="visible"><path d="M 0 0m 4.114 -0.121l 1.683 0.121v 0.418c -0.396 0 -0.627 0.022 -0.715 0.088c -0.088 0.066 -0.132 0.231 -0.132 0.484v 6.644l -1.639 -0.121v -0.418c 0.385 0 0.627 -0.033 0.715 -0.099c 0.088 -0.066 0.121 -0.22 0.121 -0.473v -2.233c -0.352 0.407 -0.792 0.605 -1.32 0.605c -0.682 0 -1.265 -0.242 -1.738 -0.737c -0.473 -0.495 -0.715 -1.089 -0.715 -1.782c 0 -0.671 0.22 -1.254 0.671 -1.749c 0.451 -0.495 1.001 -0.748 1.672 -0.748c 0.561 0 1.034 0.209 1.397 0.638Z m -1.243 4.686c 0.473 0 0.858 -0.209 1.133 -0.627c 0.077 -0.121 0.11 -0.242 0.11 -0.385v -2.222c 0 -0.143 -0.033 -0.264 -0.11 -0.385c -0.308 -0.495 -0.726 -0.737 -1.243 -0.737c -0.451 0 -0.814 0.22 -1.1 0.671c -0.198 0.33 -0.297 0.825 -0.297 1.485c 0 1.199 0.407 2.2 1.507 2.2Z "/></symbol><symbol id="g8AF8F2BC2B33BC6B311ED96E17728B80" overflow="visible"><path d="M 0 0m 2.112 0.583c 0 0.319 -0.264 0.583 -0.583 0.583c -0.319 0 -0.583 -0.264 -0.583 -0.583c 0 -0.319 0.264 -0.583 0.583 -0.583c 0.319 0 0.583 0.264 0.583 0.583Z "/></symbol></defs></svg>