<svg viewBox="0 0 218.485188889 23.513" width="218.485188889pt" height="23.513pt" xmlns="http://www.w3.org/2000/svg" xmlns:xlink="http://www.w3.org/1999/xlink" xmlns:h5="http://www.w3.org/1999/xhtml"><path fill="#ffffff" fill-rule="nonzero" d="M 0 0v 23.513h 218.485188889v -23.513Z "/><g transform="matrix(1 0 0 -1 8 15.513)"><use xlink:href="#g288C5F862A9000CECB6AFF6FB299E72D" x="0" y="0" fill="#000000" fill-rule="nonzero"/><use xlink:href="#g13D937BB10A31EC78824D081E8D671A3" x="7.183" y="0" fill="#000000" fill-rule="nonzero"/><use xlink:href="#g5635C2E77DCE3A68CBA0E998B566F8ED" x="10.241" y="0" fill="#000000" fill-rule="nonzero"/><use xlink:href="#g66850B9E6D943556B4514DB893CD08CE" x="16.357" y="0" fill="#000000" fill-rule="nonzero"/><use xlink:href="#g55A7CE01FEF58ABF26DCDA5BD3DA34B" x="26.136" y="0" fill="#000000" fill-rule="nonzero"/><use xlink:href="#g134E412E79E5635DAA32952FF37CC5D1" x="30.415" y="0" fill="#000000" fill-rule="nonzero"/><use xlink:href="#g4D2A141AA7BF381107380276919D80EC" x="36.531" y="0" fill="#000000" fill-rule="nonzero"/><use xlink:href="#g66850B9E6D943556B4514DB893CD08CE" x="45.078" y="0" fill="#000000" fill-rule="nonzero"/><use xlink:href="#g4D2A141AA7BF381107380276919D80EC" x="51.194" y="0" fill="#000000" fill-rule="nonzero"/><use xlink:href="#gD8CAA00A782C273933863CE2AFE28829" x="56.078" y="0" fill="#000000" fill-rule="nonzero"/><use xlink:href="#g13D937BB10A31EC78824D081E8D671A3" x="60.39" y="0" fill="#000000" fill-rule="nonzero"/><use xlink:href="#gC0D2A859579FFB562717100DE739703C" x="63.448" y="0" fill="#000000" fill-rule="nonzero"/><use xlink:href="#g7F5967141EBC89EE5F97D32C1B3CF866" x="68.64" y="0" fill="#000000" fill-rule="nonzero"/><use xlink:href="#g55A7CE01FEF58ABF26DCDA5BD3DA34B" x="74.14" y="0" fill="#000000" fill-rule="nonzero"/><use xlink:href="#g13D937BB10A31EC78824D081E8D671A3" x="78.419" y="0" fill="#000000" fill-rule="nonzero"/><use xlink:href="#gC0D2A859579FFB562717100DE739703C" x="81.477" y="0" fill="#000000" fill-rule="nonzero"/><use xlink:href="#g4D2A141AA7BF381107380276919D80EC" x="86.977" y="0" fill="#000000" fill-rule="nonzero"/><use xlink:href="#gE430C86ACBD14DBA90023A8809998BA9" x="95.524" y="0" fill="#000000" fill-rule="nonzero"/><use xlink:href="#g6B017866591DD120EC89954081653EE6" x="101.024" y="0" fill="#000000" fill-rule="nonzero"/></g><g transform="matrix(1 0 0 -1 116.053 15.513)"><use xlink:href="#g8CAF94BAEF81D91CC1530A3D4F0B18EF" x="0" y="0" fill="#000000" fill-rule="nonzero"/></g><g transform="matrix(1 0 0 -1 122.433 15.513)"><use xlink:href="#g9C5E01F97914784D6046F24928CB3533" x="0" y="0" fill="#000000" fill-rule="nonzero"/></g><g transform="matrix(1 0 0 -1 126.712 15.513)"><use xlink:href="#g7FDD4349A49914F62F30F23AE9794251" x="0" y="0" fill="#000000" fill-rule="nonzero"/></g><g transform="matrix(1 0 0 -1 133.004 15.513)"><use xlink:href="#g44903F1336FFA3AC82F2FDAECC383B22" x="0" y="0" fill="#000000" fill-rule="nonzero"/></g><g transform="matrix(1 0 0 -1 140.338555556 15.513)"><use xlink:href="#g2389F7618E8CE27CC7151A1D8E5DEAD4" x="0" y="0" fill="#000000" fill-rule="nonzero"/></g><g transform="matrix(1 0 0 -1 151.952111111 15.513)"><use xlink:href="#g7FDD4349A49914F62F30F23AE9794251" x="0" y="0" fill="#000000" fill-rule="nonzero"/></g><g transform="matrix(1 0 0 -1 158.244111111 11.52)"><use xlink:href="#g777C235EA19CAB599B58B593B0044621" x="0" y="0" fill="#000000" fill-rule="nonzero"/></g><g transform="matrix(1 0 0 -1 165.685855556 15.513)"><use xlink:href="#g6CA3708905D5D56BD06755CEABD69DE1" x="0" y="0" fill="#000000" fill-rule="nonzero"/></g><g transform="matrix(1 0 0 -1 176.6883 15.513)"><use xlink:href="#g847DCE2A3EE7D23E3D551BDE0EE8A683" x="0" y="0" fill="#000000" fill-rule="nonzero"/></g><g transform="matrix(1 0 0 -1 182.1883 15.513)"><use xlink:href="#g7FDD4349A49914F62F30F23AE9794251" x="0" y="0" fill="#000000" fill-rule="nonzero"/></g><g transform="matrix(1 0 0 -1 190.924744444 15.513)"><use xlink:href="#gDDD45F8C02017DD13480202EA2B099EF" x="0" y="0" fill="#000000" fill-rule="nonzero"/></g><g transform="matrix(1 0 0 -1 201.927188889 15.513)"><use xlink:href="#g23FF2CB0A5B3999574DE734D483151BD" x="0" y="0" fill="#000000" fill-rule="nonzero"/></g><g transform="matrix(1 0 0 -1 207.427188889 15.513)"><use xlink:href="#g4E5BF43E5EFA72E1A8415D4D8F5287AD" x="0" y="0" fill="#000000" fill-rule="nonzero"/></g><defs><symbol id="g288C5F862A9000CECB6AFF6FB299E72D" overflow="visible"><path d="M 0 0m 3.883 0c -0.429 0.022 -1.177 0.033 -1.815 0.033c -0.638 0 -1.331 -0.011 -1.705 -0.033v 0.341h 0.154c 0.814 0 0.979 0.033 0.979 0.495v 5.874c 0 0.308153748 -0.11 0.428794556 -0.759 0.428924805l -0.374 0.000075195v 0.341h 6.039l 0.308 -2.475h -0.275c -0.198 1.529 -0.451 2.134 -2.101 2.134h -1.1c -0.66 0 -0.759 0 -0.759 -0.407v -2.816h 0.594c 1.078 0 1.518 0.044 1.518 1.1v 0.187h 0.286v -2.915h -0.286v 0.176c 0 1.08180777 -0.38930896 1.089294403 -1.518 1.111h -0.594v -2.761c 0 -0.396 0.176 -0.473 1.023 -0.473h 0.385Z "/></symbol><symbol id="g13D937BB10A31EC78824D081E8D671A3" overflow="visible"><path d="M 0 0m 0.363 0v 0.341c 0.671 0 0.858 0.003104492 0.858 0.407v 3.091c 0 0.489811523 -0.121 0.561 -0.814 0.561v 0.341l 1.54 0.121v -4.114c 0 -0.396170868 0.165 -0.407 0.77 -0.407v -0.341c -0.253 0 -0.726 0.033 -1.155 0.033c -0.385 0 -0.935 -0.033 -1.199 -0.033Z m 1.056 6.193c 0.341 0 0.572 0.242 0.572 0.583c 0 0.374 -0.297 0.572 -0.583 0.572c -0.286 0 -0.572 -0.187 -0.572 -0.572c 0 -0.275 0.165 -0.583 0.583 -0.583Z "/></symbol><symbol id="g5635C2E77DCE3A68CBA0E998B566F8ED" overflow="visible"><path d="M 0 0m 5.027 3.322c 0 1.111 -0.517 1.54 -1.529 1.54c -0.814 0 -1.331 -0.55 -1.595 -1.155v 1.155l -1.551 -0.121v -0.341h 0.143c 0.704 0 0.715 -0.190480469 0.715 -0.649v -2.937c 0 -0.462 -0.121 -0.473 -0.858 -0.473v -0.341c 0.253 0 0.968 0.033 1.232 0.033c 0.198 0 1.1 -0.033 1.243 -0.033v 0.341c -0.726 0 -0.858 0.028038116 -0.858 0.451v 2.046c 0 1.111 0.759 1.76 1.485 1.76c 0.506 0 0.814 -0.33363623 0.814 -1.133v -2.673c 0 -0.437862305 -0.132 -0.451 -0.858 -0.451v -0.341c 0.253 0.011 0.858 0.033 1.342 0.033c 0.198 0 0.99 -0.022 1.133 -0.033v 0.341h -0.198c -0.594 0 -0.66 0.121651749 -0.66 0.396Z "/></symbol><symbol id="g66850B9E6D943556B4514DB893CD08CE" overflow="visible"><path d="M 0 0m 2.695 -0.121c 1.012 0 1.474 0.715 1.485 0.726v -0.726h 0.044c 0 0 1.529 0.121 1.54 0.121h 0.033v 0.341h -0.121c -0.627 0 -0.737 0.121 -0.737 0.561v 6.732h -0.011c -0.077 0 -1.573 -0.121 -1.573 -0.121v -0.341h 0.132c 0.561 0 0.726 -0.11 0.726 -0.517v -2.464c -0.363 0.44 -0.858 0.671 -1.386 0.671c -1.408 0 -2.453 -1.188 -2.453 -2.486c 0 -1.38214389 1.057933426 -2.497 2.321 -2.497Z m 0.077 0.242c -0.407 0 -0.693 0.165 -0.957 0.429c -0.363 0.429 -0.528 0.847 -0.528 1.804c 0 0.286 0.011 0.902 0.242 1.386c 0.242 0.506 0.792 0.88 1.342 0.88c 0.572 0 1.023 -0.33 1.298 -0.869v -2.64c -0.077 -0.242 -0.561 -0.99 -1.397 -0.99Z "/></symbol><symbol id="g55A7CE01FEF58ABF26DCDA5BD3DA34B" overflow="visible"><path d="M 0 0m 3.377 1.342v 0.649h 0.275v -0.649c 0 -0.814 -0.343803711 -1.463 -1.234964508 -1.463c -0.998035492 0 -1.273035492 0.814 -1.273035492 1.529v 2.992h -0.935v 0.242c 0.968 0.033 1.408 1.045 1.419 2.123h 0.275v -2.013h 1.573v -0.352h -1.573v -3.113c 0 -0.572 0.198 -1.133 0.713097458 -1.133c 0.544554886 0 0.760902542 0.627 0.760902542 1.188Z "/></symbol><symbol id="g134E412E79E5635DAA32952FF37CC5D1" overflow="visible"><path d="M 0 0m 3.53183252 4.862178589c 1.01096875 0 1.49516748 -0.484641846 1.49516748 -1.518178925v -2.629c 0 -0.360475586 0.22 -0.374 0.858 -0.374v -0.341c -0.264 0 -0.891 0.033 -1.364 0.033c -0.198 0 -0.968 -0.033 -1.111 -0.033v 0.341c 0.022173889 0 0.043812683 -8.392e-6 0.064927795 -8.392e-6c 0.628330688 0 0.793072205 0.007390457 0.793072205 0.462008392v 2.552c 0 0.88 -0.264 1.243 -0.814 1.243c -0.580421875 0 -1.485 -0.517 -1.485 -1.76v -1.991c 0 -0.483929169 0.077 -0.506 0.858 -0.506v -0.341c -0.143 0 -0.979 0.033 -1.177 0.033c -0.484 0 -1.045 -0.033 -1.298 -0.033v 0.341c 0.814 0 0.858 0.044 0.858 0.517v 5.742000336c 0 0.495 -0.121 0.572 -0.858 0.572v 0.341l 1.584 0.121v -3.828h 0.011c 0.484 1.012 1.309006714 1.056178589 1.58483252 1.056178589Z "/></symbol><symbol id="g4D2A141AA7BF381107380276919D80EC" overflow="visible"><path d="M 0 0m 4.268 1.265c -0.352 -1.012 -1.21 -1.111 -1.474 -1.111c -0.385 0 -0.649 0.143 -0.891 0.341c -0.462 0.385 -0.682 0.99 -0.682 1.881v 0.165h 3.146c 0.176 0 0.198 0.033 0.198 0.22c 0 1.265 -0.715 2.167 -1.969 2.167c -1.342 0 -2.288 -1.177 -2.288 -2.508c 0 -1.518 1.177 -2.541 2.442 -2.541c 1.298 0 1.815 1.199 1.815 1.43c 0 0.066 -0.033 0.132 -0.132 0.132c -0.077 0 -0.121 -0.044 -0.165 -0.176Z m -1.683 3.421c 1.111 0 1.254 -1.43 1.254 -1.87v -0.033h -2.607v 0.077c 0.088 1.452 0.913 1.826 1.353 1.826Z "/></symbol><symbol id="gD8CAA00A782C273933863CE2AFE28829" overflow="visible"><path d="M 0 0m 1.166 0.814c 0 -0.451 -0.11 -0.473 -0.858 -0.473v -0.341c 0.286 0 0.781 0.033 1.265 0.033c 0.484 0 1.166 -0.033 1.386 -0.033v 0.341c -1.067 0 -1.067 0.055 -1.067 0.616v 0.781c 0 0.924 0 1.034 0.011 1.122c 0.165 1.606 1.012 1.76 1.265 1.76c 0.055 0 0.088 0 0.143 -0.011c -0.154 -0.088 -0.253 -0.22 -0.253 -0.44c 0 -0.297 0.231 -0.462 0.473 -0.462c 0.176 0 0.473 0.11 0.473 0.484c 0 0.374 -0.363 0.671 -0.814 0.671c -0.704 0 -1.144 -0.572 -1.353 -1.21v 1.21l -1.529 -0.121v -0.341h 0.143c 0.539 -0.033 0.66 -0.066 0.704 -0.429c 0.011 -0.055 0.011 -0.583 0.011 -1.705Z "/></symbol><symbol id="gC0D2A859579FFB562717100DE739703C" overflow="visible"><path d="M 0 0m 1.881 4.004c -0.109527344 0.271927734 0.099 0.396 0.594 0.396v 0.341c -0.286 0 -0.968 -0.033 -1.265 -0.033c -0.198 0 -0.726 0.011 -1.001 0.033v -0.341h 0.066c 0.495 0 0.662901901 -0.044864746 0.77 -0.308l 1.65 -4.059c 0.031541748 -0.077592834 0.066 -0.154 0.198 -0.154c 0.099 0 0.170367065 0.030837128 0.22 0.154l 1.485 3.685c 0.106892822 0.265252136 0.341 0.682 0.99 0.682v 0.341c -0.209 -0.022 -0.495 -0.033 -0.825 -0.033c -0.165 0 -0.858 0.033 -0.957 0.033v -0.341c 0.429 0 0.615779114 -0.351912048 0.484 -0.682l -1.144 -2.86Z "/></symbol><symbol id="g7F5967141EBC89EE5F97D32C1B3CF866" overflow="visible"><path d="M 0 0m 4.356 3.102c 0 0.451 -0.044 0.869 -0.363 1.188c -0.407 0.407 -0.847 0.638 -1.639 0.638c -0.638 0 -1.562 -0.429 -1.562 -1.232c 0 -0.341 0.198 -0.528 0.506 -0.528c 0.308 0 0.506 0.198 0.506 0.517c 0 0.264 -0.187 0.495 -0.561 0.495c 0.264 0.33 0.759 0.506 1.155 0.506c 0.594 0 1.199 -0.473 1.199 -1.364v -0.451c -2.442 -0.066 -3.124 -1.078 -3.124 -1.815c 0 -0.924 1.056 -1.177 1.738 -1.177c 0.616 0 1.221 0.319 1.463 0.957c 0.011 -0.209 0.187 -0.902 0.869 -0.902c 0.33 0 0.891 0.242 0.891 1.034v 0.627h -0.275v -0.627c 0 -0.572 -0.253 -0.693 -0.385 -0.693c -0.22 0 -0.418 0.143 -0.418 0.759Z m -0.759 -1.562c 0 -0.968 -0.715 -1.419 -1.298 -1.419c -0.605 0 -0.979 0.463192383 -0.979 0.946c 0 0.528 0.396 1.496 2.277 1.573Z "/></symbol><symbol id="gE430C86ACBD14DBA90023A8809998BA9" overflow="visible"><path d="M 0 0m 2.75 0.154c -0.66 0 -1.166 0.451 -1.364 0.99c -0.121 0.341 -0.165 0.726 -0.165 1.43c 0 0.704 0.088 1.166 0.385 1.54c 0.233487488 0.294021393 0.649 0.572 1.111 0.572c 0.462 0 0.968 -0.253 1.166 -0.572c 0.297 -0.374 0.385 -0.836 0.385 -1.54c 0 -0.704 -0.044 -1.089 -0.165 -1.43c -0.198 -0.539 -0.693 -0.99 -1.353 -0.99Z m 2.431 2.2c 0 1.408 -1.1 2.574 -2.431 2.574c -1.375 0 -2.442 -1.199 -2.442 -2.574c 0 -1.419 1.144 -2.475 2.431 -2.475c 1.331 0 2.442 1.078 2.442 2.475Z "/></symbol><symbol id="g6B017866591DD120EC89954081653EE6" overflow="visible"><path d="M 0 0m 1.958 0.781v 3.619h 1.254v 0.341h -1.287v 1.287c 0 0.957 0.55 1.485 0.99 1.485c 0.242 0 0.385 -0.077 0.385 -0.077c -0.044 -0.011 -0.33 -0.121 -0.33 -0.462c 0 -0.11 0.044 -0.473 0.473 -0.473c 0.308 0 0.484 0.198 0.484 0.484c 0 0.44 -0.44 0.77 -0.99 0.77c -0.814 0 -1.705 -0.627 -1.705 -1.738v -1.276h -0.869v -0.341h 0.869v -3.597c 0 -0.429 -0.143 -0.462 -0.693 -0.462h -0.165v -0.341c 0.264 0 0.781 0.033 1.265 0.033c 0.484 0 1.056 -0.011 1.386 -0.033v 0.341h -0.154c -0.792 0 -0.913 0.077 -0.913 0.44Z "/></symbol><symbol id="g8CAF94BAEF81D91CC1530A3D4F0B18EF" overflow="visible"><path d="M 0 0m 6.072 6.963c 0 0.484 -0.473 0.792 -0.99 0.792c -0.682 0 -1.155 -0.44 -1.408 -1.309c -0.055 -0.198 -0.176 -0.759 -0.352 -1.683h -0.715c -0.242 0 -0.363 -0.011 -0.363 -0.242c 0 -0.121 0.11 -0.176 0.341 -0.176h 0.66l -0.803 -4.257c -0.121 -0.627 -0.231 -1.089 -0.33 -1.397c -0.132 -0.407 -0.319 -0.616 -0.561 -0.616c -0.165 0 -0.297 0.044 -0.418 0.121c 0.352 0.055 0.528 0.264 0.528 0.616c 0 0.286 -0.143 0.429 -0.44 0.429c -0.374 0 -0.638 -0.33 -0.638 -0.704c 0 -0.484 0.451 -0.792 0.968 -0.792c 0.275 0 0.528 0.11 0.737 0.341c 0.352 0.363 0.627 0.88 0.825 1.573c 0.121 0.429 0.231 0.847 0.308 1.265l 0.638 3.421h 0.902c 0.253 0 0.363 0.011 0.363 0.264c 0 0.099 -0.11 0.154 -0.33 0.154h -0.847c 0.066 0.451 0.374 2.112 0.473 2.321c 0.11 0.231 0.264 0.341 0.462 0.341c 0.165 0 0.308 -0.044 0.429 -0.121c -0.341 -0.077 -0.517 -0.275 -0.517 -0.616c 0 -0.286 0.143 -0.429 0.44 -0.429c 0.374 0 0.638 0.33 0.638 0.704Z "/></symbol><symbol id="g9C5E01F97914784D6046F24928CB3533" overflow="visible"><path d="M 0 0m 3.498 -2.728c 0.099 0 0.154 0.055 0.154 0.154c 0 0.033 -0.022 0.077 -0.055 0.121c -0.572 0.44 -1.034 1.166 -1.375 2.167c -0.297 0.869 -0.451 1.727 -0.451 2.574v 0.924c 0 0.847 0.154 1.705 0.451 2.574c 0.341 1.001 0.803 1.727 1.375 2.167c 0.033 0.033 0.055 0.077 0.055 0.121c 0 0.099 -0.055 0.154 -0.154 0.154c -0.011 0 -0.044 -0.011 -0.077 -0.033c -0.66 -0.506 -1.21 -1.254 -1.661 -2.255c -0.429 -0.957 -0.649 -1.859 -0.649 -2.728v -0.924c 0 -0.869 0.22 -1.771 0.649 -2.728c 0.451 -1.001 1.001 -1.749 1.661 -2.255c 0.033 -0.022 0.066 -0.033 0.077 -0.033Z "/></symbol><symbol id="g7FDD4349A49914F62F30F23AE9794251" overflow="visible"><path d="M 0 0m 5.797 4.103c 0 0.506 -0.495 0.759 -1.045 0.759c -0.473 0 -0.847 -0.253 -1.133 -0.759c -0.231 0.506 -0.616 0.759 -1.177 0.759c -0.539 0 -0.979 -0.253 -1.331 -0.748c -0.297 -0.429 -0.451 -0.748 -0.451 -0.957c 0 -0.099 0.055 -0.154 0.165 -0.154c 0.099 0 0.165 0.055 0.187 0.154c 0.209 0.638 0.671 1.386 1.408 1.386c 0.363 0 0.539 -0.231 0.539 -0.682c 0 -0.231 -0.198 -1.089 -0.583 -2.563c -0.187 -0.737 -0.517 -1.1 -0.99 -1.1c -0.154 0 -0.297 0.033 -0.418 0.088c 0.286 0.11 0.429 0.308 0.429 0.594c 0 0.286 -0.143 0.429 -0.44 0.429c -0.363 0 -0.638 -0.308 -0.638 -0.671c 0 -0.506 0.517 -0.759 1.056 -0.759c 0.462 0 0.836 0.253 1.133 0.759c 0.209 -0.506 0.605 -0.759 1.177 -0.759c 0.528 0 0.968 0.253 1.32 0.748c 0.297 0.429 0.451 0.748 0.451 0.957c 0 0.099 -0.055 0.154 -0.165 0.154c -0.099 0 -0.154 -0.055 -0.187 -0.154c -0.187 -0.627 -0.682 -1.386 -1.397 -1.386c -0.363 0 -0.55 0.22 -0.55 0.671c 0 0.143 0.055 0.451 0.176 0.946l 0.374 1.485c 0.209 0.825 0.55 1.243 1.034 1.243c 0.154 0 0.297 -0.033 0.418 -0.088c -0.297 -0.099 -0.44 -0.297 -0.44 -0.594c 0 -0.286 0.154 -0.429 0.451 -0.429c 0.352 0 0.627 0.319 0.627 0.671Z "/></symbol><symbol id="g44903F1336FFA3AC82F2FDAECC383B22" overflow="visible"><path d="M 0 0m 0.858 -2.695c 0.66 0.506 1.21 1.254 1.661 2.255c 0.429 0.957 0.649 1.859 0.649 2.728v 0.924c 0 0.869 -0.22 1.771 -0.649 2.728c -0.451 1.001 -1.001 1.749 -1.661 2.255c -0.033 0.022 -0.066 0.033 -0.077 0.033c -0.099 0 -0.154 -0.055 -0.154 -0.154c 0 -0.044 0.022 -0.088 0.055 -0.121c 0.572 -0.44 1.034 -1.166 1.375 -2.167c 0.297 -0.869 0.451 -1.727 0.451 -2.574v -0.924c 0 -0.847 -0.154 -1.705 -0.451 -2.574c -0.341 -1.001 -0.803 -1.727 -1.375 -2.167c -0.033 -0.044 -0.055 -0.088 -0.055 -0.121c 0 -0.099 0.055 -0.154 0.154 -0.154c 0.011 0 0.044 0.011 0.077 0.033Z "/></symbol><symbol id="g2389F7618E8CE27CC7151A1D8E5DEAD4" overflow="visible"><path d="M 0 0m 7.678 4.037h -6.798c -0.176 0 -0.264 -0.088 -0.264 -0.253c 0 -0.165 0.088 -0.253 0.264 -0.253h 6.798c 0.176 0 0.264 0.088 0.264 0.253c 0 0.132 -0.121 0.253 -0.264 0.253Z m 0 -2.068h -6.798c -0.176 0 -0.264 -0.088 -0.264 -0.253c 0 -0.165 0.088 -0.253 0.264 -0.253h 6.798c 0.176 0 0.264 0.088 0.264 0.253c 0 0.143 -0.121 0.253 -0.264 0.253Z "/></symbol><symbol id="g777C235EA19CAB599B58B593B0044621" overflow="visible"><path d="M 0 0m 2.7181 2.7181c 0.5159 0.2079 1.0087 0.6622 1.0087 1.3167c 0 0.3465 -0.1848 0.6237 -0.5467 0.8239c -0.3003 0.1694 -0.6391 0.2541 -1.0164 0.2541c -0.3773 0 -0.7084 -0.077 -0.9933 -0.2387c -0.3465 -0.1925 -0.5236 -0.462 -0.5236 -0.8085c 0 -0.2926 0.1463 -0.4389 0.4312 -0.4389c 0.2387 0 0.4158 0.1848 0.4158 0.4235c 0 0.2387 -0.1232 0.3773 -0.3619 0.4158c 0.2233 0.2387 0.5544 0.3619 1.0087 0.3619c 0.5005 0 0.7854 -0.3003 0.7854 -0.7931c 0 -0.3619 -0.1001 -0.6545 -0.2926 -0.8855c -0.2156 -0.2541 -0.3696 -0.2926 -0.8162 -0.3234c -0.2079 -0.0154 -0.3465 0.0077 -0.3465 -0.1463c 0 -0.0924 0.077 -0.1386 0.2233 -0.1386h 0.4081c 0.6622 0 0.9856 -0.5005 0.9856 -1.1935c 0 -0.6776 -0.308 -1.1935 -0.9548 -1.1935c -0.5621 0 -0.9702 0.154 -1.2243 0.4697c 0.2695 0.0308 0.4081 0.1848 0.4081 0.4543c 0 0.2541 -0.1925 0.4466 -0.4466 0.4466c -0.3003 0 -0.4543 -0.154 -0.4543 -0.4697c 0 -0.3927 0.2002 -0.7084 0.5929 -0.9317c 0.3311 -0.1848 0.7084 -0.2772 1.1396 -0.2772c 0.4697 0 0.8778 0.1309 1.232 0.3927c 0.385 0.2849 0.5775 0.6545 0.5775 1.1088c 0 0.7161 -0.6237 1.2089 -1.2397 1.3706Z "/></symbol><symbol id="g6CA3708905D5D56BD06755CEABD69DE1" overflow="visible"><path d="M 0 0m 7.678 2.97h -6.798c -0.176 0 -0.264 -0.077 -0.264 -0.22c 0 -0.143 0.088 -0.22 0.264 -0.22h 6.798c 0.176 0 0.264 0.077 0.264 0.22c 0 0.132 -0.132 0.22 -0.264 0.22Z "/></symbol><symbol id="g847DCE2A3EE7D23E3D551BDE0EE8A683" overflow="visible"><path d="M 0 0m 2.607 7.326c -0.561 0 -1.034 -0.198 -1.441 -0.594c -0.407 -0.396 -0.616 -0.858 -0.616 -1.419c 0 -0.374 0.275 -0.649 0.616 -0.649c 0.33 0 0.605 0.286 0.605 0.616c 0 0.363 -0.264 0.616 -0.616 0.616c -0.033 0 -0.055 0 -0.077 -0.011c 0.209 0.539 0.693 1.012 1.386 1.012c 0.902 0 1.408 -0.781 1.408 -1.727c 0 -0.737 -0.374 -1.529 -1.122 -2.365l -2.068 -2.332c -0.143 -0.165 -0.132 -0.154 -0.132 -0.473h 4.081l 0.319 1.98h -0.363c -0.088 -0.561 -0.165 -0.88 -0.231 -0.979c -0.055 -0.055 -0.385 -0.077 -0.99 -0.077h -1.837l 1.067 1.045c 0.748 0.704 1.694 1.463 2.013 2.046c 0.22 0.385 0.33 0.77 0.33 1.155c 0 1.298 -1.012 2.156 -2.332 2.156Z "/></symbol><symbol id="gDDD45F8C02017DD13480202EA2B099EF" overflow="visible"><path d="M 0 0m 7.678 3.014h -3.135v 3.135c 0 0.176 -0.088 0.264 -0.264 0.264c -0.176 0 -0.264 -0.088 -0.264 -0.264v -3.135h -3.135c -0.176 0 -0.264 -0.088 -0.264 -0.264c 0 -0.176 0.088 -0.264 0.264 -0.264h 3.135v -3.135c 0 -0.176 0.088 -0.264 0.264 -0.264c 0.176 0 0.264 0.088 0.264 0.264v 3.135h 3.135c 0.176 0 0.264 0.088 0.264 0.264c 0 0.143 -0.121 0.264 -0.264 0.264Z "/></symbol><symbol id="g23FF2CB0A5B3999574DE734D483151BD" overflow="visible"><path d="M 0 0m 2.959 7.326c -0.451 -0.462 -1.111 -0.693 -1.98 -0.693v -0.429c 0.572 0 1.045 0.088 1.408 0.264v -5.566c 0 -0.198 -0.044 -0.33 -0.143 -0.385c -0.099 -0.055 -0.374 -0.088 -0.814 -0.088h -0.385v -0.429c 0.275 0.022 0.869 0.033 1.782 0.033c 0.913 0 1.507 -0.011 1.782 -0.033v 0.429h -0.385c -0.451 0 -0.726 0.033 -0.814 0.088c -0.088 0.055 -0.143 0.187 -0.143 0.385v 6.094c 0 0.264 -0.022 0.33 -0.308 0.33Z "/></symbol><symbol id="g4E5BF43E5EFA72E1A8415D4D8F5287AD" overflow="visible"><path d="M 0 0m 2.112 0.583c 0 0.319 -0.264 0.583 -0.583 0.583c -0.319 0 -0.583 -0.264 -0.583 -0.583c 0 -0.319 0.264 -0.583 0.583 -0.583c 0.319 0 0.583 0.264 0.583 0.583Z "/></symbol></defs></svg>