<svg viewBox="0 0 169.67 52.905" width="169.67pt" height="52.905pt" xmlns="http://www.w3.org/2000/svg" xmlns:xlink="http://www.w3.org/1999/xlink" xmlns:h5="http://www.w3.org/1999/xhtml"><path fill="#ffffff" fill-rule="nonzero" d="M 0 0v 52.905h 169.67v -52.905Z "/><g transform="matrix(1 0 0 -1 8 15.513)"><use xlink:href="#g9E8323F85A8A8BED21D29C5404A8A2D2" x="0" y="0" fill="#000000" fill-rule="nonzero"/><use xlink:href="#g4D2A141AA7BF381107380276919D80EC" x="6.875" y="0" fill="#000000" fill-rule="nonzero"/><use xlink:href="#g55A7CE01FEF58ABF26DCDA5BD3DA34B" x="11.759" y="0" fill="#000000" fill-rule="nonzero"/></g><g transform="matrix(1 0 0 -1 27.701 15.513)"><use xlink:href="#g8CAF94BAEF81D91CC1530A3D4F0B18EF" x="0" y="0" fill="#000000" fill-rule="nonzero"/></g><g transform="matrix(1 0 0 -1 34.081 15.513)"><use xlink:href="#g9C5E01F97914784D6046F24928CB3533" x="0" y="0" fill="#000000" fill-rule="nonzero"/></g><g transform="matrix(1 0 0 -1 38.36 15.513)"><use xlink:href="#g7FDD4349A49914F62F30F23AE9794251" x="0" y="0" fill="#000000" fill-rule="nonzero"/></g><g transform="matrix(1 0 0 -1 44.652 15.513)"><use xlink:href="#g44903F1336FFA3AC82F2FDAECC383B22" x="0" y="0" fill="#000000" fill-rule="nonzero"/></g><g transform="matrix(1 0 0 -1 51.986555556 15.513)"><use xlink:href="#g2389F7618E8CE27CC7151A1D8E5DEAD4" x="0" y="0" fill="#000000" fill-rule="nonzero"/></g><g transform="matrix(1 0 0 -1 63.600111111 15.513)"><use xlink:href="#g7FDD4349A49914F62F30F23AE9794251" x="0" y="0" fill="#000000" fill-rule="nonzero"/></g><g transform="matrix(1 0 0 -1 69.892111111 11.52)"><use xlink:href="#g25B224D96CA3F5CCC7E774117FEA026D" x="0" y="0" fill="#000000" fill-rule="nonzero"/></g><g transform="matrix(1 0 0 -1 74.889411111 15.513)"><use xlink:href="#g1570446F77F9A6C1B85605F46F92409E" x="0" y="0" fill="#000000" fill-rule="nonzero"/></g><g transform="matrix(1 0 0 -1 80.015411111 11.52)"><use xlink:href="#gB4F8E97E8EFD98CA94EE40D9890E0542" x="0" y="0" fill="#000000" fill-rule="nonzero"/></g><g transform="matrix(1 0 0 -1 85.621011111 15.513)"><use xlink:href="#g4E5BF43E5EFA72E1A8415D4D8F5287AD" x="0" y="0" fill="#000000" fill-rule="nonzero"/></g><g transform="matrix(1 0 0 -1 8 30.209)"><use xlink:href="#gADFBCFF91CD4441D0D3DE1869C4D3751" x="0" y="0" fill="#000000" fill-rule="nonzero"/><use xlink:href="#g3593F7C85ED8CB5D03890960451F9615" x="4.917" y="0" fill="#000000" fill-rule="nonzero"/><use xlink:href="#gD1BBBAFD56C5E3215B433EF66BF299D2" x="11.066" y="0" fill="#000000" fill-rule="nonzero"/></g><g transform="matrix(1 0 0 -1 23.983 30.209)"><use xlink:href="#g288C5F862A9000CECB6AFF6FB299E72D" x="3.663" y="0" fill="#000000" fill-rule="nonzero"/><use xlink:href="#g13D937BB10A31EC78824D081E8D671A3" x="10.846" y="0" fill="#000000" fill-rule="nonzero"/><use xlink:href="#g5635C2E77DCE3A68CBA0E998B566F8ED" x="13.904" y="0" fill="#000000" fill-rule="nonzero"/><use xlink:href="#g66850B9E6D943556B4514DB893CD08CE" x="20.02" y="0" fill="#000000" fill-rule="nonzero"/></g><g transform="matrix(1 0 0 -1 53.782 30.209)"><use xlink:href="#g8CAF94BAEF81D91CC1530A3D4F0B18EF" x="0" y="0" fill="#000000" fill-rule="nonzero"/></g><g transform="matrix(1 0 0 -1 60.162 26.216)"><use xlink:href="#g24C97E338F6D0205BFA2AEE81EF0C1DC" x="0" y="0" fill="#000000" fill-rule="nonzero"/></g><g transform="matrix(1 0 0 -1 63.9119 30.209)"><use xlink:href="#g9C5E01F97914784D6046F24928CB3533" x="0" y="0" fill="#000000" fill-rule="nonzero"/></g><g transform="matrix(1 0 0 -1 68.1909 30.209)"><use xlink:href="#g7FDD4349A49914F62F30F23AE9794251" x="0" y="0" fill="#000000" fill-rule="nonzero"/></g><g transform="matrix(1 0 0 -1 74.4829 30.209)"><use xlink:href="#g44903F1336FFA3AC82F2FDAECC383B22" x="0" y="0" fill="#000000" fill-rule="nonzero"/></g><g transform="matrix(1 0 0 -1 78.7619 30.209)"><use xlink:href="#g4E5BF43E5EFA72E1A8415D4D8F5287AD" x="0" y="0" fill="#000000" fill-rule="nonzero"/></g><g transform="matrix(1 0 0 -1 8 44.905)"><use xlink:href="#gADFBCFF91CD4441D0D3DE1869C4D3751" x="0" y="0" fill="#000000" fill-rule="nonzero"/><use xlink:href="#g6AC0FEAEA4AD6DFC4FD3D989A5E5C8B6" x="4.917" y="0" fill="#000000" fill-rule="nonzero"/><use xlink:href="#gD1BBBAFD56C5E3215B433EF66BF299D2" x="11.946" y="0" fill="#000000" fill-rule="nonzero"/></g><g transform="matrix(1 0 0 -1 24.863 44.905)"><use xlink:href="#g288C5F862A9000CECB6AFF6FB299E72D" x="3.663" y="0" fill="#000000" fill-rule="nonzero"/><use xlink:href="#g13D937BB10A31EC78824D081E8D671A3" x="10.846" y="0" fill="#000000" fill-rule="nonzero"/><use xlink:href="#g5635C2E77DCE3A68CBA0E998B566F8ED" x="13.904" y="0" fill="#000000" fill-rule="nonzero"/><use xlink:href="#g66850B9E6D943556B4514DB893CD08CE" x="20.02" y="0" fill="#000000" fill-rule="nonzero"/><use xlink:href="#g7F5967141EBC89EE5F97D32C1B3CF866" x="29.799" y="0" fill="#000000" fill-rule="nonzero"/><use xlink:href="#g3E788B64C66C7CF92E8EF7B9397C8477" x="35.299" y="0" fill="#000000" fill-rule="nonzero"/><use xlink:href="#g3E788B64C66C7CF92E8EF7B9397C8477" x="38.357" y="0" fill="#000000" fill-rule="nonzero"/><use xlink:href="#g90BA286DC3F12EE562A49B9ADD98A010" x="45.078" y="0" fill="#000000" fill-rule="nonzero"/><use xlink:href="#gD8CAA00A782C273933863CE2AFE28829" x="49.962" y="0" fill="#000000" fill-rule="nonzero"/><use xlink:href="#g13D937BB10A31EC78824D081E8D671A3" x="54.274" y="0" fill="#000000" fill-rule="nonzero"/><use xlink:href="#g55A7CE01FEF58ABF26DCDA5BD3DA34B" x="57.332" y="0" fill="#000000" fill-rule="nonzero"/><use xlink:href="#g13D937BB10A31EC78824D081E8D671A3" x="61.611" y="0" fill="#000000" fill-rule="nonzero"/><use xlink:href="#g90BA286DC3F12EE562A49B9ADD98A010" x="64.669" y="0" fill="#000000" fill-rule="nonzero"/><use xlink:href="#g7F5967141EBC89EE5F97D32C1B3CF866" x="69.553" y="0" fill="#000000" fill-rule="nonzero"/><use xlink:href="#g3E788B64C66C7CF92E8EF7B9397C8477" x="75.053" y="0" fill="#000000" fill-rule="nonzero"/><use xlink:href="#gE58F5F96D3042638142ED2F785BA5607" x="81.774" y="0" fill="#000000" fill-rule="nonzero"/><use xlink:href="#gE430C86ACBD14DBA90023A8809998BA9" x="88.198" y="0" fill="#000000" fill-rule="nonzero"/><use xlink:href="#g13D937BB10A31EC78824D081E8D671A3" x="93.698" y="0" fill="#000000" fill-rule="nonzero"/><use xlink:href="#g5635C2E77DCE3A68CBA0E998B566F8ED" x="96.756" y="0" fill="#000000" fill-rule="nonzero"/><use xlink:href="#g55A7CE01FEF58ABF26DCDA5BD3DA34B" x="102.564" y="0" fill="#000000" fill-rule="nonzero"/><use xlink:href="#gCCF13623E43E7E3CF9E9A30EAD81337F" x="106.843" y="0" fill="#000000" fill-rule="nonzero"/><use xlink:href="#gE430C86ACBD14DBA90023A8809998BA9" x="114.84" y="0" fill="#000000" fill-rule="nonzero"/><use xlink:href="#g6B017866591DD120EC89954081653EE6" x="120.34" y="0" fill="#000000" fill-rule="nonzero"/></g><g transform="matrix(1 0 0 -1 152.232 44.905)"><use xlink:href="#g8CAF94BAEF81D91CC1530A3D4F0B18EF" x="0" y="0" fill="#000000" fill-rule="nonzero"/></g><g transform="matrix(1 0 0 -1 158.612 44.905)"><use xlink:href="#g4E5BF43E5EFA72E1A8415D4D8F5287AD" x="0" y="0" fill="#000000" fill-rule="nonzero"/></g><defs><symbol id="g9E8323F85A8A8BED21D29C5404A8A2D2" overflow="visible"><path d="M 0 0m 6.402 2.838h -0.275c -0.176 -1.837 -0.759 -2.497 -2.31 -2.497h -0.88c -0.363 0 -0.462 0.033 -0.462 0.495v 5.808c 0 0.429 0.088 0.528 1.089 0.528h 0.319v 0.341c -0.429 -0.022 -1.177 -0.033 -1.815 -0.033c -0.638 0 -1.331 0.011 -1.705 0.033v -0.341h 0.374c 0.66 0 0.759 -0.154 0.759 -0.385v -5.951c 0 -0.385 -0.055 -0.495 -0.869 -0.495h -0.264v -0.341h 5.731Z "/></symbol><symbol id="g4D2A141AA7BF381107380276919D80EC" overflow="visible"><path d="M 0 0m 4.268 1.265c -0.352 -1.012 -1.21 -1.111 -1.474 -1.111c -0.385 0 -0.649 0.143 -0.891 0.341c -0.462 0.385 -0.682 0.99 -0.682 1.881v 0.165h 3.146c 0.176 0 0.198 0.033 0.198 0.22c 0 1.265 -0.715 2.167 -1.969 2.167c -1.342 0 -2.288 -1.177 -2.288 -2.508c 0 -1.518 1.177 -2.541 2.442 -2.541c 1.298 0 1.815 1.199 1.815 1.43c 0 0.066 -0.033 0.132 -0.132 0.132c -0.077 0 -0.121 -0.044 -0.165 -0.176Z m -1.683 3.421c 1.111 0 1.254 -1.43 1.254 -1.87v -0.033h -2.607v 0.077c 0.088 1.452 0.913 1.826 1.353 1.826Z "/></symbol><symbol id="g55A7CE01FEF58ABF26DCDA5BD3DA34B" overflow="visible"><path d="M 0 0m 3.377 1.342v 0.649h 0.275v -0.649c 0 -0.814 -0.343803711 -1.463 -1.234964508 -1.463c -0.998035492 0 -1.273035492 0.814 -1.273035492 1.529v 2.992h -0.935v 0.242c 0.968 0.033 1.408 1.045 1.419 2.123h 0.275v -2.013h 1.573v -0.352h -1.573v -3.113c 0 -0.572 0.198 -1.133 0.713097458 -1.133c 0.544554886 0 0.760902542 0.627 0.760902542 1.188Z "/></symbol><symbol id="g8CAF94BAEF81D91CC1530A3D4F0B18EF" overflow="visible"><path d="M 0 0m 6.072 6.963c 0 0.484 -0.473 0.792 -0.99 0.792c -0.682 0 -1.155 -0.44 -1.408 -1.309c -0.055 -0.198 -0.176 -0.759 -0.352 -1.683h -0.715c -0.242 0 -0.363 -0.011 -0.363 -0.242c 0 -0.121 0.11 -0.176 0.341 -0.176h 0.66l -0.803 -4.257c -0.121 -0.627 -0.231 -1.089 -0.33 -1.397c -0.132 -0.407 -0.319 -0.616 -0.561 -0.616c -0.165 0 -0.297 0.044 -0.418 0.121c 0.352 0.055 0.528 0.264 0.528 0.616c 0 0.286 -0.143 0.429 -0.44 0.429c -0.374 0 -0.638 -0.33 -0.638 -0.704c 0 -0.484 0.451 -0.792 0.968 -0.792c 0.275 0 0.528 0.11 0.737 0.341c 0.352 0.363 0.627 0.88 0.825 1.573c 0.121 0.429 0.231 0.847 0.308 1.265l 0.638 3.421h 0.902c 0.253 0 0.363 0.011 0.363 0.264c 0 0.099 -0.11 0.154 -0.33 0.154h -0.847c 0.066 0.451 0.374 2.112 0.473 2.321c 0.11 0.231 0.264 0.341 0.462 0.341c 0.165 0 0.308 -0.044 0.429 -0.121c -0.341 -0.077 -0.517 -0.275 -0.517 -0.616c 0 -0.286 0.143 -0.429 0.44 -0.429c 0.374 0 0.638 0.33 0.638 0.704Z "/></symbol><symbol id="g9C5E01F97914784D6046F24928CB3533" overflow="visible"><path d="M 0 0m 3.498 -2.728c 0.099 0 0.154 0.055 0.154 0.154c 0 0.033 -0.022 0.077 -0.055 0.121c -0.572 0.44 -1.034 1.166 -1.375 2.167c -0.297 0.869 -0.451 1.727 -0.451 2.574v 0.924c 0 0.847 0.154 1.705 0.451 2.574c 0.341 1.001 0.803 1.727 1.375 2.167c 0.033 0.033 0.055 0.077 0.055 0.121c 0 0.099 -0.055 0.154 -0.154 0.154c -0.011 0 -0.044 -0.011 -0.077 -0.033c -0.66 -0.506 -1.21 -1.254 -1.661 -2.255c -0.429 -0.957 -0.649 -1.859 -0.649 -2.728v -0.924c 0 -0.869 0.22 -1.771 0.649 -2.728c 0.451 -1.001 1.001 -1.749 1.661 -2.255c 0.033 -0.022 0.066 -0.033 0.077 -0.033Z "/></symbol><symbol id="g7FDD4349A49914F62F30F23AE9794251" overflow="visible"><path d="M 0 0m 5.797 4.103c 0 0.506 -0.495 0.759 -1.045 0.759c -0.473 0 -0.847 -0.253 -1.133 -0.759c -0.231 0.506 -0.616 0.759 -1.177 0.759c -0.539 0 -0.979 -0.253 -1.331 -0.748c -0.297 -0.429 -0.451 -0.748 -0.451 -0.957c 0 -0.099 0.055 -0.154 0.165 -0.154c 0.099 0 0.165 0.055 0.187 0.154c 0.209 0.638 0.671 1.386 1.408 1.386c 0.363 0 0.539 -0.231 0.539 -0.682c 0 -0.231 -0.198 -1.089 -0.583 -2.563c -0.187 -0.737 -0.517 -1.1 -0.99 -1.1c -0.154 0 -0.297 0.033 -0.418 0.088c 0.286 0.11 0.429 0.308 0.429 0.594c 0 0.286 -0.143 0.429 -0.44 0.429c -0.363 0 -0.638 -0.308 -0.638 -0.671c 0 -0.506 0.517 -0.759 1.056 -0.759c 0.462 0 0.836 0.253 1.133 0.759c 0.209 -0.506 0.605 -0.759 1.177 -0.759c 0.528 0 0.968 0.253 1.32 0.748c 0.297 0.429 0.451 0.748 0.451 0.957c 0 0.099 -0.055 0.154 -0.165 0.154c -0.099 0 -0.154 -0.055 -0.187 -0.154c -0.187 -0.627 -0.682 -1.386 -1.397 -1.386c -0.363 0 -0.55 0.22 -0.55 0.671c 0 0.143 0.055 0.451 0.176 0.946l 0.374 1.485c 0.209 0.825 0.55 1.243 1.034 1.243c 0.154 0 0.297 -0.033 0.418 -0.088c -0.297 -0.099 -0.44 -0.297 -0.44 -0.594c 0 -0.286 0.154 -0.429 0.451 -0.429c 0.352 0 0.627 0.319 0.627 0.671Z "/></symbol><symbol id="g44903F1336FFA3AC82F2FDAECC383B22" overflow="visible"><path d="M 0 0m 0.858 -2.695c 0.66 0.506 1.21 1.254 1.661 2.255c 0.429 0.957 0.649 1.859 0.649 2.728v 0.924c 0 0.869 -0.22 1.771 -0.649 2.728c -0.451 1.001 -1.001 1.749 -1.661 2.255c -0.033 0.022 -0.066 0.033 -0.077 0.033c -0.099 0 -0.154 -0.055 -0.154 -0.154c 0 -0.044 0.022 -0.088 0.055 -0.121c 0.572 -0.44 1.034 -1.166 1.375 -2.167c 0.297 -0.869 0.451 -1.727 0.451 -2.574v -0.924c 0 -0.847 -0.154 -1.705 -0.451 -2.574c -0.341 -1.001 -0.803 -1.727 -1.375 -2.167c -0.033 -0.044 -0.055 -0.088 -0.055 -0.121c 0 -0.099 0.055 -0.154 0.154 -0.154c 0.011 0 0.044 0.011 0.077 0.033Z "/></symbol><symbol id="g2389F7618E8CE27CC7151A1D8E5DEAD4" overflow="visible"><path d="M 0 0m 7.678 4.037h -6.798c -0.176 0 -0.264 -0.088 -0.264 -0.253c 0 -0.165 0.088 -0.253 0.264 -0.253h 6.798c 0.176 0 0.264 0.088 0.264 0.253c 0 0.132 -0.121 0.253 -0.264 0.253Z m 0 -2.068h -6.798c -0.176 0 -0.264 -0.088 -0.264 -0.253c 0 -0.165 0.088 -0.253 0.264 -0.253h 6.798c 0.176 0 0.264 0.088 0.264 0.253c 0 0.143 -0.121 0.253 -0.264 0.253Z "/></symbol><symbol id="g25B224D96CA3F5CCC7E774117FEA026D" overflow="visible"><path d="M 0 0m 0.9163 3.2648c 0.2464 0 0.4312 0.1848 0.4312 0.4312c 0 0.2772 -0.1463 0.4235 -0.4312 0.4312c 0.1694 0.3619 0.5544 0.6545 1.0549 0.6545c 0.6776 0 1.1242 -0.5082 1.1242 -1.1858c 0 -0.3696 -0.1309 -0.7238 -0.4004 -1.0703c -0.1309 -0.1771 -0.231 -0.3003 -0.3003 -0.3696l -1.8249 -1.8095c -0.1001 -0.0924 -0.0847 -0.1155 -0.0847 -0.3465h 3.1724l 0.2387 1.4476h -0.3234c -0.0539 -0.4081 -0.1155 -0.6468 -0.1848 -0.7007c -0.0385 -0.0231 -0.2772 -0.0385 -0.7315 -0.0385h -1.309c 0.5159 0.4543 0.9933 0.8624 1.4476 1.2243c 0.3465 0.2695 0.5929 0.5082 0.7469 0.7161c 0.231 0.3003 0.3465 0.616 0.3465 0.9471c 0 0.4774 -0.1848 0.8547 -0.5621 1.1319c -0.3311 0.2541 -0.7469 0.385 -1.2397 0.385c -0.4235 0 -0.7854 -0.1232 -1.1011 -0.3696c -0.3311 -0.2695 -0.5005 -0.6083 -0.5005 -1.0241c 0 -0.2618 0.1925 -0.4543 0.4312 -0.4543Z "/></symbol><symbol id="g1570446F77F9A6C1B85605F46F92409E" overflow="visible"><path d="M 0 0m 1.364 1.419c 0 0.264 0.055 0.627 0.165 1.078h 0.539c 0.715 0 1.265 0.088 1.661 0.253c 0.363 0.154 0.605 0.374 0.726 0.649c 0.077 0.187 0.11 0.363 0.11 0.506c 0 0.605 -0.572 0.957 -1.188 0.957c -0.429 0 -0.858 -0.11 -1.287 -0.33c -0.847 -0.44 -1.584 -1.441 -1.584 -2.651c 0 -1.122 0.649 -2.002 1.738 -2.002c 0.583 0 1.1 0.143 1.551 0.418c 0.374 0.231 0.649 0.462 0.825 0.693c 0.077 0.099 0.11 0.176 0.11 0.209c 0 0.121 -0.055 0.187 -0.176 0.187c -0.055 0 -0.11 -0.044 -0.176 -0.132c -0.363 -0.484 -0.814 -0.792 -1.331 -0.924c -0.341 -0.088 -0.594 -0.132 -0.781 -0.132c -0.627 0 -0.902 0.594 -0.902 1.221Z m 2.761 2.486c 0 -0.726 -0.704 -1.089 -2.123 -1.089h -0.385c 0.209 0.726 0.517 1.21 0.935 1.441c 0.33 0.187 0.605 0.286 0.825 0.286c 0.396 0 0.748 -0.242 0.748 -0.638Z "/></symbol><symbol id="gB4F8E97E8EFD98CA94EE40D9890E0542" overflow="visible"><path d="M 0 0m 4.4891 2.8105c 0 0.3927 -0.4004 0.5852 -0.8162 0.5852c -0.3465 0 -0.6314 -0.1694 -0.847 -0.5082c -0.1848 0.3388 -0.4928 0.5082 -0.9163 0.5082c -0.2849 0 -0.5852 -0.1232 -0.8855 -0.3773c -0.3157 -0.2618 -0.4774 -0.5313 -0.4774 -0.8085c 0 -0.0847 0.0539 -0.1309 0.154 -0.1309c 0.0847 0 0.1386 0.0462 0.1771 0.1463c 0.1386 0.4158 0.5159 0.9009 1.0087 0.9009c 0.2849 0 0.4235 -0.154 0.4235 -0.4697c 0 -0.1001 -0.0539 -0.3619 -0.154 -0.7854l -0.2618 -1.0318c -0.0693 -0.2926 -0.3542 -0.6468 -0.6853 -0.6468c -0.1309 0 -0.2464 0.0231 -0.3388 0.077c 0.154 0.0693 0.2926 0.2387 0.2926 0.4158c 0 0.1848 -0.1463 0.3157 -0.3311 0.3157c -0.2618 0 -0.462 -0.231 -0.462 -0.4928c 0 -0.385 0.4081 -0.5852 0.8239 -0.5852c 0.3542 0 0.6391 0.1694 0.847 0.5082c 0.1848 -0.3388 0.4851 -0.5082 0.9086 -0.5082c 0.4235 0 0.7623 0.1694 1.0241 0.5082c 0.2233 0.3003 0.3388 0.5313 0.3388 0.6776c 0 0.0847 -0.0462 0.1309 -0.1463 0.1309c -0.0847 0 -0.1463 -0.0539 -0.1771 -0.154c -0.1309 -0.4081 -0.5236 -0.8932 -1.0087 -0.8932c -0.2849 0 -0.4312 0.154 -0.4312 0.462c 0 0.1155 0.1309 0.693 0.3927 1.7171c 0.1309 0.5005 0.3619 0.7546 0.7084 0.7546l 0.0693 -0.0077c 0.0924 0 0.1848 -0.0231 0.2695 -0.0616c -0.1925 -0.0847 -0.2849 -0.2233 -0.2849 -0.4235c 0 -0.1848 0.1463 -0.3157 0.3311 -0.3157c 0.2618 0 0.4543 0.231 0.4543 0.4928Z "/></symbol><symbol id="g4E5BF43E5EFA72E1A8415D4D8F5287AD" overflow="visible"><path d="M 0 0m 2.112 0.583c 0 0.319 -0.264 0.583 -0.583 0.583c -0.319 0 -0.583 -0.264 -0.583 -0.583c 0 -0.319 0.264 -0.583 0.583 -0.583c 0.319 0 0.583 0.264 0.583 0.583Z "/></symbol><symbol id="gADFBCFF91CD4441D0D3DE1869C4D3751" overflow="visible"><path d="M 0 0m 4.202 -2.585c 0 0.055 -0.033 0.11 -0.033 0.11c -0.319 0.297 -1.034 0.968 -1.496 2.376c -0.286 0.869 -0.418 1.881 -0.418 2.849c 0 2.167 0.561 3.894 1.771 5.115c 0.165 0.165 0.176 0.176 0.176 0.231c 0 0.121 -0.11 0.154 -0.198 0.154c -0.187 0 -0.649 -0.407 -0.847 -0.594c -1.716 -1.705 -1.969 -3.729 -1.969 -4.895c 0 -1.375 0.363 -2.585 0.88 -3.498c 0.726 -1.265 1.727 -2.002 1.936 -2.002c 0.088 0 0.198 0.033 0.198 0.154Z "/></symbol><symbol id="g3593F7C85ED8CB5D03890960451F9615" overflow="visible"><path d="M 0 0m 6.083 0.264c 0 0.253 -0.143 0.253 -0.286 0.253c -0.671 0.011 -0.671 0.154 -0.671 0.407v 2.365c 0 0.979 -0.781 1.694 -2.42 1.694c -0.627 0 -1.969 -0.044 -1.969 -1.012c 0 -0.484 0.385 -0.693 0.682 -0.693c 0.341 0 0.693 0.231 0.693 0.693c 0 0.33 -0.209 0.517 -0.242 0.539c 0.308 0.066 0.66 0.077 0.792 0.077c 0.825 0 1.21 -0.462 1.21 -1.298v -0.374c -0.781 -0.033 -3.575 -0.132 -3.575 -1.727c 0 -1.056 1.364 -1.254 2.123 -1.254c 0.88 0 1.397 0.451 1.639 0.913c 0 -0.341 0 -0.847 1.144 -0.847h 0.528c 0.22 0 0.352 0 0.352 0.264Z m -2.211 1.265c 0 -1.056 -1.012 -1.199 -1.287 -1.199c -0.561 0 -1.001 0.385 -1.001 0.869c 0 1.188 1.738 1.342 2.288 1.375Z "/></symbol><symbol id="gD1BBBAFD56C5E3215B433EF66BF299D2" overflow="visible"><path d="M 0 0m 3.718 2.75c 0 1.375 -0.363 2.585 -0.88 3.498c -0.726 1.265 -1.727 2.002 -1.936 2.002c -0.088 0 -0.198 -0.033 -0.198 -0.154c 0 -0.055 0 -0.077 0.187 -0.253c 1.386 -1.408 1.76 -3.355 1.76 -5.082c 0 -2.167 -0.561 -3.894 -1.771 -5.115c -0.165 -0.165 -0.176 -0.176 -0.176 -0.231c 0 -0.121 0.11 -0.154 0.198 -0.154c 0.187 0 0.649 0.407 0.847 0.594c 1.716 1.705 1.969 3.729 1.969 4.895Z "/></symbol><symbol id="g288C5F862A9000CECB6AFF6FB299E72D" overflow="visible"><path d="M 0 0m 3.883 0c -0.429 0.022 -1.177 0.033 -1.815 0.033c -0.638 0 -1.331 -0.011 -1.705 -0.033v 0.341h 0.154c 0.814 0 0.979 0.033 0.979 0.495v 5.874c 0 0.308153748 -0.11 0.428794556 -0.759 0.428924805l -0.374 0.000075195v 0.341h 6.039l 0.308 -2.475h -0.275c -0.198 1.529 -0.451 2.134 -2.101 2.134h -1.1c -0.66 0 -0.759 0 -0.759 -0.407v -2.816h 0.594c 1.078 0 1.518 0.044 1.518 1.1v 0.187h 0.286v -2.915h -0.286v 0.176c 0 1.08180777 -0.38930896 1.089294403 -1.518 1.111h -0.594v -2.761c 0 -0.396 0.176 -0.473 1.023 -0.473h 0.385Z "/></symbol><symbol id="g13D937BB10A31EC78824D081E8D671A3" overflow="visible"><path d="M 0 0m 0.363 0v 0.341c 0.671 0 0.858 0.003104492 0.858 0.407v 3.091c 0 0.489811523 -0.121 0.561 -0.814 0.561v 0.341l 1.54 0.121v -4.114c 0 -0.396170868 0.165 -0.407 0.77 -0.407v -0.341c -0.253 0 -0.726 0.033 -1.155 0.033c -0.385 0 -0.935 -0.033 -1.199 -0.033Z m 1.056 6.193c 0.341 0 0.572 0.242 0.572 0.583c 0 0.374 -0.297 0.572 -0.583 0.572c -0.286 0 -0.572 -0.187 -0.572 -0.572c 0 -0.275 0.165 -0.583 0.583 -0.583Z "/></symbol><symbol id="g5635C2E77DCE3A68CBA0E998B566F8ED" overflow="visible"><path d="M 0 0m 5.027 3.322c 0 1.111 -0.517 1.54 -1.529 1.54c -0.814 0 -1.331 -0.55 -1.595 -1.155v 1.155l -1.551 -0.121v -0.341h 0.143c 0.704 0 0.715 -0.190480469 0.715 -0.649v -2.937c 0 -0.462 -0.121 -0.473 -0.858 -0.473v -0.341c 0.253 0 0.968 0.033 1.232 0.033c 0.198 0 1.1 -0.033 1.243 -0.033v 0.341c -0.726 0 -0.858 0.028038116 -0.858 0.451v 2.046c 0 1.111 0.759 1.76 1.485 1.76c 0.506 0 0.814 -0.33363623 0.814 -1.133v -2.673c 0 -0.437862305 -0.132 -0.451 -0.858 -0.451v -0.341c 0.253 0.011 0.858 0.033 1.342 0.033c 0.198 0 0.99 -0.022 1.133 -0.033v 0.341h -0.198c -0.594 0 -0.66 0.121651749 -0.66 0.396Z "/></symbol><symbol id="g66850B9E6D943556B4514DB893CD08CE" overflow="visible"><path d="M 0 0m 2.695 -0.121c 1.012 0 1.474 0.715 1.485 0.726v -0.726h 0.044c 0 0 1.529 0.121 1.54 0.121h 0.033v 0.341h -0.121c -0.627 0 -0.737 0.121 -0.737 0.561v 6.732h -0.011c -0.077 0 -1.573 -0.121 -1.573 -0.121v -0.341h 0.132c 0.561 0 0.726 -0.11 0.726 -0.517v -2.464c -0.363 0.44 -0.858 0.671 -1.386 0.671c -1.408 0 -2.453 -1.188 -2.453 -2.486c 0 -1.38214389 1.057933426 -2.497 2.321 -2.497Z m 0.077 0.242c -0.407 0 -0.693 0.165 -0.957 0.429c -0.363 0.429 -0.528 0.847 -0.528 1.804c 0 0.286 0.011 0.902 0.242 1.386c 0.242 0.506 0.792 0.88 1.342 0.88c 0.572 0 1.023 -0.33 1.298 -0.869v -2.64c -0.077 -0.242 -0.561 -0.99 -1.397 -0.99Z "/></symbol><symbol id="g24C97E338F6D0205BFA2AEE81EF0C1DC" overflow="visible"><path d="M 0 0m 2.1868 4.2273c -0.1925 0 -0.3234 -0.077 -0.3927 -0.2387l -1.2936 -3.2494h 0.3465l 1.7094 2.8259c 0.0385 0.0693 0.0616 0.1463 0.0616 0.231c 0 0.231 -0.2002 0.4312 -0.4312 0.4312Z "/></symbol><symbol id="g6AC0FEAEA4AD6DFC4FD3D989A5E5C8B6" overflow="visible"><path d="M 0 0m 6.6 2.453c 0 1.463 -1.034 2.497 -2.629 2.497c -0.803 0 -1.353 -0.319 -1.617 -0.539v 3.223l -1.947 -0.088v -0.517c 0.682 0 0.759 0 0.759 -0.429v -6.6h 0.517c 0.176 0.209 0.363 0.407 0.539 0.616c 0.088 -0.088 0.627 -0.682 1.606 -0.682c 1.639 0 2.772 0.99 2.772 2.519Z m -1.408 0c 0 -0.517 0 -1.122 -0.286 -1.551c -0.319 -0.451 -0.825 -0.572 -1.177 -0.572c -0.77 0 -1.199 0.594 -1.309 0.759v 2.761c 0.297 0.385 0.825 0.704 1.43 0.704c 1.342 0 1.342 -1.331 1.342 -2.101Z "/></symbol><symbol id="g7F5967141EBC89EE5F97D32C1B3CF866" overflow="visible"><path d="M 0 0m 4.356 3.102c 0 0.451 -0.044 0.869 -0.363 1.188c -0.407 0.407 -0.847 0.638 -1.639 0.638c -0.638 0 -1.562 -0.429 -1.562 -1.232c 0 -0.341 0.198 -0.528 0.506 -0.528c 0.308 0 0.506 0.198 0.506 0.517c 0 0.264 -0.187 0.495 -0.561 0.495c 0.264 0.33 0.759 0.506 1.155 0.506c 0.594 0 1.199 -0.473 1.199 -1.364v -0.451c -2.442 -0.066 -3.124 -1.078 -3.124 -1.815c 0 -0.924 1.056 -1.177 1.738 -1.177c 0.616 0 1.221 0.319 1.463 0.957c 0.011 -0.209 0.187 -0.902 0.869 -0.902c 0.33 0 0.891 0.242 0.891 1.034v 0.627h -0.275v -0.627c 0 -0.572 -0.253 -0.693 -0.385 -0.693c -0.22 0 -0.418 0.143 -0.418 0.759Z m -0.759 -1.562c 0 -0.968 -0.715 -1.419 -1.298 -1.419c -0.605 0 -0.979 0.463192383 -0.979 0.946c 0 0.528 0.396 1.496 2.277 1.573Z "/></symbol><symbol id="g3E788B64C66C7CF92E8EF7B9397C8477" overflow="visible"><path d="M 0 0m 1.947 0.847c 0 -0.484 0.077 -0.506 0.858 -0.506v -0.341c -0.275 0 -0.792 0.033 -1.232 0.033c -0.44 0 -0.935 -0.033 -1.21 -0.033v 0.341c 0.737 0 0.858 0.033 0.858 0.44v 5.852c 0 0.517 -0.242 0.539 -0.858 0.539v 0.341l 1.584 0.121Z "/></symbol><symbol id="g90BA286DC3F12EE562A49B9ADD98A010" overflow="visible"><path d="M 0 0m 2.772 -0.121c 1.386 0 1.793 1.254 1.793 1.441c 0 0.066 -0.055 0.099 -0.154 0.099c -0.088 0 -0.11 -0.022 -0.132 -0.099c -0.209 -0.66 -0.638 -1.166 -1.441 -1.166c -0.649 0 -1.551 0.572 -1.551 2.244c 0 0.891 0.198 1.419 0.594 1.87c 0.242 0.242 0.495 0.374 0.869 0.374c 0.495 0 0.957 -0.154 1.199 -0.396c -0.429 -0.022 -0.517 -0.33 -0.517 -0.495c 0 -0.297 0.187 -0.517 0.517 -0.517c 0.286 0 0.495 0.198 0.495 0.528c 0 0.737 -0.869 1.166 -1.683 1.166c -1.419 0 -2.398 -1.254 -2.398 -2.552c 0 -1.199 0.913 -2.497 2.409 -2.497Z "/></symbol><symbol id="gD8CAA00A782C273933863CE2AFE28829" overflow="visible"><path d="M 0 0m 1.166 0.814c 0 -0.451 -0.11 -0.473 -0.858 -0.473v -0.341c 0.286 0 0.781 0.033 1.265 0.033c 0.484 0 1.166 -0.033 1.386 -0.033v 0.341c -1.067 0 -1.067 0.055 -1.067 0.616v 0.781c 0 0.924 0 1.034 0.011 1.122c 0.165 1.606 1.012 1.76 1.265 1.76c 0.055 0 0.088 0 0.143 -0.011c -0.154 -0.088 -0.253 -0.22 -0.253 -0.44c 0 -0.297 0.231 -0.462 0.473 -0.462c 0.176 0 0.473 0.11 0.473 0.484c 0 0.374 -0.363 0.671 -0.814 0.671c -0.704 0 -1.144 -0.572 -1.353 -1.21v 1.21l -1.529 -0.121v -0.341h 0.143c 0.539 -0.033 0.66 -0.066 0.704 -0.429c 0.011 -0.055 0.011 -0.583 0.011 -1.705Z "/></symbol><symbol id="gE58F5F96D3042638142ED2F785BA5607" overflow="visible"><path d="M 0 0m 0.308 4.4c 0.77 0 0.858 -0.055 0.858 -0.572v -5.17c 0 -0.44 -0.143 -0.451 -0.858 -0.451v -0.341c 0.253 0 1.078 0.033 1.232 0.033c 0.198 0 1.045 -0.033 1.243 -0.033v 0.341c -0.737 0 -0.858 0 -0.858 0.506v 1.936c 0.165 -0.396 0.737 -0.77 1.342 -0.77c 1.260638672 0 2.464 0.989357315 2.464 2.552c 0 1.287 -1.031711914 2.431 -2.288 2.431c -0.429 0 -0.979 -0.088 -1.551 -0.726v 0.726l -1.584 -0.121Z m 1.617 -3.278v 2.574c 0.264 0.484 0.759 0.88 1.43 0.88c 0.682 0 1.452 -0.759 1.452 -2.211c 0 -1.507211487 -0.902 -2.244 -1.562 -2.244c -0.869 0 -1.276 0.792 -1.32 1.001Z "/></symbol><symbol id="gE430C86ACBD14DBA90023A8809998BA9" overflow="visible"><path d="M 0 0m 2.75 0.154c -0.66 0 -1.166 0.451 -1.364 0.99c -0.121 0.341 -0.165 0.726 -0.165 1.43c 0 0.704 0.088 1.166 0.385 1.54c 0.233487488 0.294021393 0.649 0.572 1.111 0.572c 0.462 0 0.968 -0.253 1.166 -0.572c 0.297 -0.374 0.385 -0.836 0.385 -1.54c 0 -0.704 -0.044 -1.089 -0.165 -1.43c -0.198 -0.539 -0.693 -0.99 -1.353 -0.99Z m 2.431 2.2c 0 1.408 -1.1 2.574 -2.431 2.574c -1.375 0 -2.442 -1.199 -2.442 -2.574c 0 -1.419 1.144 -2.475 2.431 -2.475c 1.331 0 2.442 1.078 2.442 2.475Z "/></symbol><symbol id="gCCF13623E43E7E3CF9E9A30EAD81337F" overflow="visible"><path d="M 0 0m 3.685 4.752v -1.265c 0 -0.154 -0.022 -0.198 -0.132 -0.198c -0.132 0 -0.154 0.066 -0.154 0.187c 0 0.165 -0.055 1.243 -1.254 1.243c -0.902 0 -1.254 -0.396 -1.254 -0.825c 0 -0.451 0.374 -0.66 0.704 -0.759c 0.516698212 -0.15500943 0.781 -0.143 1.276 -0.308c 0.699875 -0.233288086 1.089 -0.792 1.089 -1.408c 0 -0.737 -0.418 -1.54 -1.782 -1.54c -0.528 0 -0.902 0.176 -1.199 0.473c -0.343221786 -0.396025009 -0.411306107 -0.474583969 -0.519952423 -0.474583969c -0.061688354 0 -0.096047577 0.037494431 -0.096047577 0.232583969v 1.529c 0 0.197990768 0.033 0.231 0.143 0.231c 0.088 0 0.116321106 -0.022944809 0.143 -0.143c 0.088 -0.396 0.21286937 -0.745836624 0.360292969 -0.979c 0.354707031 -0.561 0.866256714 -0.627 1.179707031 -0.627c 0.737 0 1.243 0.341 1.243 1.001c 0 0.506 -0.363 0.781 -0.836 0.935c -0.297684982 0.096920715 -1.078 0.165 -1.54 0.429c -0.363 0.209 -0.693 0.572 -0.693 1.078c 0 0.583 0.363 1.364 1.771 1.364c 0.473 0 0.77 -0.132 1.023 -0.308c 0.286 0.275 0.326916992 0.308 0.407 0.308c 0.066 0 0.121 -0.011 0.121 -0.176Z "/></symbol><symbol id="g6B017866591DD120EC89954081653EE6" overflow="visible"><path d="M 0 0m 1.958 0.781v 3.619h 1.254v 0.341h -1.287v 1.287c 0 0.957 0.55 1.485 0.99 1.485c 0.242 0 0.385 -0.077 0.385 -0.077c -0.044 -0.011 -0.33 -0.121 -0.33 -0.462c 0 -0.11 0.044 -0.473 0.473 -0.473c 0.308 0 0.484 0.198 0.484 0.484c 0 0.44 -0.44 0.77 -0.99 0.77c -0.814 0 -1.705 -0.627 -1.705 -1.738v -1.276h -0.869v -0.341h 0.869v -3.597c 0 -0.429 -0.143 -0.462 -0.693 -0.462h -0.165v -0.341c 0.264 0 0.781 0.033 1.265 0.033c 0.484 0 1.056 -0.011 1.386 -0.033v 0.341h -0.154c -0.792 0 -0.913 0.077 -0.913 0.44Z "/></symbol></defs></svg>